<svg width="15" height="19" viewBox="0 0 15 19" fill="none" xmlns="http://www.w3.org/2000/svg">
<path d="M6.63947 0.528272C5.79963 0.646685 5.00373 0.924956 4.25178 1.36308C3.49982 1.81305 2.83332 2.3844 2.25226 3.07711C1.67121 3.76983 1.19025 4.56616 0.809393 5.4661C0.428533 6.3542 0.184393 7.31335 0.0769709 8.34354C-0.0890447 9.78818 0.0134943 11.1618 0.384588 12.4643C0.755682 13.755 1.31476 14.877 2.06183 15.8302C2.8089 16.7834 3.7049 17.5146 4.74982 18.0238C5.79474 18.5448 6.90803 18.7461 8.08967 18.6277C8.51935 18.5922 8.94416 18.5093 9.36408 18.3791C9.784 18.237 10.1917 18.0564 10.5872 17.8373C10.9827 17.6182 11.3612 17.3607 11.7225 17.0647C12.0838 16.7686 12.4207 16.443 12.7332 16.0878L12.8504 15.9634C12.909 15.8924 12.9407 15.8036 12.9456 15.697C12.9505 15.5904 12.9237 15.5016 12.8651 15.4306L12.4403 14.8799C12.3817 14.7971 12.3084 14.7556 12.2205 14.7556C12.1326 14.7556 12.0594 14.7911 12.0008 14.8622L11.7664 15.1109C11.4149 15.5135 11.0291 15.8569 10.6092 16.141C10.1893 16.4371 9.75226 16.668 9.29816 16.8338C8.84406 16.9995 8.37287 17.1002 7.88459 17.1357C7.40607 17.1712 6.91779 17.1357 6.41974 17.0291C5.72638 16.887 5.07697 16.6088 4.4715 16.1943C3.86603 15.7917 3.33625 15.2855 2.88215 14.6757C2.42805 14.0659 2.05939 13.3761 1.77619 12.6064C1.49299 11.8367 1.32697 11.0256 1.27814 10.173C1.20002 9.03626 1.31721 7.96462 1.62971 6.95811C1.94221 5.95159 2.39387 5.07534 2.98469 4.32933C3.57551 3.58333 4.27619 3.00311 5.08674 2.58866C5.89728 2.16237 6.76642 1.96699 7.69416 2.00252C8.54377 2.0262 9.33478 2.25118 10.0672 2.67747C10.8094 3.10376 11.4539 3.66918 12.0008 4.37374C12.5477 5.0783 12.9774 5.89831 13.2899 6.83377C13.6024 7.75739 13.7586 8.7343 13.7586 9.7645V10.3329C13.7586 10.771 13.6219 11.1411 13.3485 11.443C13.075 11.745 12.7528 11.8782 12.3817 11.8426C12.0594 11.7953 11.7908 11.6177 11.576 11.3098C11.3612 11.0019 11.2537 10.6526 11.2537 10.2618V6.92258C11.2537 6.81601 11.2244 6.72424 11.1658 6.64727C11.1072 6.5703 11.034 6.53182 10.9461 6.53182H10.3162C10.2576 6.53182 10.2015 6.55254 10.1478 6.59399C10.0941 6.63543 10.0574 6.69168 10.0379 6.76272C9.72541 6.34828 9.34943 6.01672 8.90998 5.76805C8.47053 5.51939 8.00178 5.39505 7.50373 5.39505C7.02521 5.39505 6.58088 5.50754 6.17072 5.73253C5.7508 5.94567 5.38459 6.24171 5.07209 6.62063C4.75959 6.99955 4.51545 7.4436 4.33967 7.95278C4.15412 8.45011 4.06135 8.98889 4.06135 9.56912C4.06135 10.1493 4.15412 10.6881 4.33967 11.1855C4.51545 11.6946 4.75959 12.1387 5.07209 12.5176C5.38459 12.8965 5.7508 13.1926 6.17072 13.4057C6.58088 13.6307 7.02521 13.7432 7.50373 13.7432C8.09943 13.7432 8.64875 13.5715 9.15168 13.2281C9.65461 12.8847 10.0574 12.4347 10.3602 11.8782C10.5945 12.34 10.9168 12.71 11.327 12.9883C11.7371 13.2666 12.1863 13.3879 12.6746 13.3524C13.3387 13.2932 13.8929 12.9587 14.3372 12.3489C14.7816 11.739 15.0037 11.0315 15.0037 10.2263V9.56912C15.0037 8.23105 14.7791 6.97587 14.3299 5.80358C13.8807 4.64313 13.2752 3.6455 12.5135 2.81069C11.7518 1.97587 10.868 1.35124 9.86213 0.936797C8.8465 0.51051 7.77228 0.374335 6.63947 0.528272ZM7.50373 12.2156C6.89826 12.2156 6.38312 11.9581 5.95832 11.443C5.53351 10.9279 5.32111 10.3033 5.32111 9.56912C5.32111 8.83495 5.53351 8.21032 5.95832 7.69523C6.38312 7.18013 6.89826 6.92258 7.50373 6.92258C8.1092 6.92258 8.62433 7.18013 9.04914 7.69523C9.47394 8.21032 9.68635 8.83495 9.68635 9.56912C9.68635 10.3033 9.47394 10.9279 9.04914 11.443C8.62433 11.9581 8.1092 12.2156 7.50373 12.2156Z" fill="#F60515"/>
</svg>
