<svg width="62" height="69" viewBox="0 0 62 69" fill="none" xmlns="http://www.w3.org/2000/svg">
<path d="M61.2036 66.5538L46.438 33.9154C46.3559 33.7341 46.2431 33.5868 46.0996 33.4734C45.956 33.3601 45.7817 33.3035 45.5766 33.3035H35.8559L35.979 32.6915C37.9477 31.9662 39.5473 30.6516 40.7778 28.7477C42.0083 26.8438 42.6235 24.7359 42.6235 22.424C42.6235 19.4322 41.6596 16.871 39.7319 14.7404C37.8042 12.6098 35.4868 11.5446 32.7798 11.5446C30.0727 11.5446 27.7553 12.6098 25.8276 14.7404C23.8999 16.871 22.936 19.4322 22.936 22.424C22.936 24.7359 23.5512 26.8438 24.7817 28.7477C26.0122 30.6516 27.6118 31.9662 29.5805 32.6915L29.7036 33.3035H16.0454C15.8403 33.3035 15.666 33.3601 15.5224 33.4734C15.3789 33.5868 15.2661 33.7341 15.1841 33.9154L0.418427 66.5538C0.336395 66.7351 0.29538 66.9164 0.29538 67.0977C0.29538 67.2791 0.336395 67.4377 0.418427 67.5737C0.541473 67.755 0.674774 67.891 0.818329 67.9817C0.961884 68.0723 1.11569 68.1177 1.27975 68.1177H60.3423C60.5063 68.1177 60.6601 68.0723 60.8037 67.9817C60.9472 67.891 61.0805 67.755 61.2036 67.5737C61.2856 67.4377 61.3266 67.2791 61.3266 67.0977C61.3266 66.9164 61.2856 66.7351 61.2036 66.5538ZM29.1499 61.25L33.3335 65.9418H30.2573L22.6284 57.5782C22.4643 57.3516 22.2387 57.2382 21.9516 57.2382C21.6645 57.2382 21.4389 57.3516 21.2749 57.5782L13.646 65.9418H10.5698L19.6753 55.8103C19.8803 55.629 19.9829 55.3797 19.9829 55.0623C19.9829 54.745 19.8803 54.4957 19.6753 54.3144L11.9848 45.8148L13.0307 43.5029L17.3374 48.1947C17.4194 48.3307 17.5219 48.4214 17.645 48.4667C17.768 48.512 17.8911 48.5347 18.0141 48.5347C18.1372 48.5347 18.2602 48.512 18.3833 48.4667C18.5063 48.4214 18.6089 48.3307 18.6909 48.1947L23.6128 42.755C23.7358 42.6643 23.8178 42.551 23.8589 42.415C23.8999 42.279 23.9204 42.143 23.9204 42.007V35.4793H25.8891V43.7069L20.2905 49.9626C20.0854 50.1439 19.9829 50.3932 19.9829 50.7106C19.9829 51.0279 20.0854 51.2772 20.2905 51.4585L26.1967 57.9862C26.2788 58.1222 26.3813 58.2128 26.5044 58.2582C26.6274 58.3035 26.7505 58.3262 26.8735 58.3262C26.9966 58.3262 27.1196 58.3035 27.2426 58.2582C27.3657 58.2128 27.4682 58.1222 27.5503 57.9862L36.1635 48.5347H50.8676L51.852 50.7106H37.7016C37.5786 50.7106 37.4555 50.7332 37.3325 50.7786C37.2094 50.8239 37.1069 50.9146 37.0249 51.0505L29.1499 59.7541C28.9448 59.9354 28.8423 60.1847 28.8423 60.5021C28.8423 60.8194 28.9448 61.0687 29.1499 61.25ZM27.4272 65.9418H16.476L21.9516 59.8901L27.4272 65.9418ZM24.9048 22.424C24.9048 20.0215 25.6738 17.9702 27.2119 16.2703C28.75 14.5704 30.6059 13.7205 32.7798 13.7205C34.9536 13.7205 36.8095 14.5704 38.3476 16.2703C39.8857 17.9702 40.6548 20.0215 40.6548 22.424C40.6548 24.3732 40.1113 26.1298 39.0244 27.6937C37.9375 29.2577 36.5532 30.2889 34.8716 30.7876C34.7075 30.8329 34.5639 30.9349 34.4409 31.0936C34.3178 31.2522 34.2358 31.4222 34.1948 31.6035L32.7798 38.2672L31.3647 31.6035C31.3237 31.4222 31.2417 31.2522 31.1186 31.0936C30.9956 30.9349 30.852 30.8329 30.688 30.7876C29.0063 30.2889 27.622 29.2577 26.5351 27.6937C25.4482 26.1298 24.9048 24.3732 24.9048 22.424ZM31.7954 43.3669C31.8774 43.5936 32.0005 43.7863 32.1645 43.9449C32.3286 44.1036 32.5337 44.1829 32.7798 44.1829C33.0258 44.1829 33.2309 44.1036 33.395 43.9449C33.5591 43.7863 33.6821 43.5936 33.7641 43.3669L35.3637 35.4793H44.9614L49.8833 46.3588H35.7329C35.6098 46.3588 35.4868 46.3815 35.3637 46.4268C35.2407 46.4721 35.1382 46.5628 35.0561 46.6988L26.8735 55.6743L22.3823 50.7106L27.5503 44.9309C27.6733 44.8402 27.7553 44.7269 27.7964 44.5909C27.8374 44.4549 27.8579 44.3189 27.8579 44.1829V35.4793H30.1958L31.7954 43.3669ZM16.6606 35.4793H21.9516V41.531L18.0141 45.8828L13.9536 41.463L16.6606 35.4793ZM11.062 47.8547L17.5835 55.0623L7.73972 65.9418H2.87936L11.062 47.8547ZM36.1635 65.9418L31.2417 60.5021L38.1323 52.8865H52.8364L56.7739 61.59H52.0366L48.3452 55.5383C48.2632 55.4023 48.1606 55.289 48.0376 55.1983C47.9145 55.1077 47.7915 55.0623 47.6684 55.0623C47.5044 55.0623 47.3506 55.085 47.207 55.1303C47.0634 55.1757 46.9507 55.2663 46.8686 55.4023L44.9614 57.4422L43.4848 54.5184C43.3208 54.2011 43.0337 54.0424 42.6235 54.0424C42.2133 54.0424 41.9262 54.2011 41.7622 54.5184L38.1323 61.59H35.7329V63.7659H57.7583L58.7426 65.9418H36.1635ZM44.8383 61.59H40.4087L42.6235 57.2382L44.8383 61.59ZM47.1147 61.59L46.0073 59.4141L47.4223 57.8502L49.6372 61.59H47.1147ZM36.7173 22.424H38.686C38.686 20.6108 38.1118 19.0695 36.9633 17.8003C35.8149 16.531 34.4204 15.8963 32.7798 15.8963V18.0722C33.8462 18.0722 34.769 18.5029 35.5483 19.3642C36.3276 20.2255 36.7173 21.2454 36.7173 22.424ZM35.1176 25.8918L36.3481 27.6597C36.7583 27.2971 37.1172 26.9005 37.4248 26.4698C37.7324 26.0392 37.9887 25.5519 38.1938 25.0079L36.4096 24.1919C36.2456 24.5092 36.061 24.8152 35.8559 25.1099C35.6508 25.4045 35.4048 25.6652 35.1176 25.8918ZM3.2485 15.8963C3.08444 15.8963 2.93063 15.9417 2.78708 16.0323C2.64352 16.123 2.53073 16.2363 2.4487 16.3723L0.47995 19.6362C0.356903 19.8175 0.29538 20.0215 0.29538 20.2481C0.29538 20.4748 0.356903 20.6788 0.47995 20.8601L2.4487 24.1239C2.53073 24.2599 2.64352 24.3732 2.78708 24.4639C2.93063 24.5546 3.08444 24.5999 3.2485 24.5999H8.17038V34.3914C8.17038 34.7087 8.26266 34.9694 8.44724 35.1734C8.63181 35.3773 8.86765 35.4793 9.15475 35.4793H13.0923C13.3794 35.4793 13.6152 35.3773 13.7998 35.1734C13.9843 34.9694 14.0766 34.7087 14.0766 34.3914V24.5999H20.9673C21.1313 24.5999 21.2954 24.5432 21.4594 24.4299C21.6235 24.3166 21.7466 24.1919 21.8286 24.0559C21.9106 23.8746 21.9516 23.6819 21.9516 23.478C21.9516 23.274 21.8901 23.0813 21.7671 22.9L20.1674 20.2481L21.7671 17.5963C21.8901 17.4149 21.9516 17.2223 21.9516 17.0183C21.9516 16.8143 21.9106 16.6216 21.8286 16.4403C21.7466 16.3043 21.6235 16.1797 21.4594 16.0663C21.2954 15.953 21.1313 15.8963 20.9673 15.8963H14.0766V13.7205H18.9985C19.1626 13.7205 19.3164 13.6751 19.4599 13.5845C19.6035 13.4938 19.7163 13.3805 19.7983 13.2445L21.7671 9.98065C21.8901 9.79933 21.9516 9.59534 21.9516 9.36868C21.9516 9.14203 21.8901 8.93804 21.7671 8.75671L19.7983 5.49288C19.7163 5.35689 19.6035 5.24356 19.4599 5.1529C19.3164 5.06224 19.1626 5.0169 18.9985 5.0169H14.0766V1.75307C14.0766 1.43575 13.9843 1.1751 13.7998 0.971115C13.6152 0.76712 13.3794 0.665131 13.0923 0.665131H9.15475C8.86765 0.665131 8.63181 0.76712 8.44724 0.971115C8.26266 1.1751 8.17038 1.43575 8.17038 1.75307V5.0169H1.27975C1.11569 5.0169 0.95163 5.07357 0.787567 5.1869C0.623505 5.30022 0.500458 5.42488 0.418427 5.56088C0.336395 5.7422 0.29538 5.93486 0.29538 6.13885C0.29538 6.34284 0.356903 6.53549 0.47995 6.71682L2.07956 9.36868L0.47995 12.0205C0.356903 12.2019 0.29538 12.3945 0.29538 12.5985C0.29538 12.8025 0.336395 12.9952 0.418427 13.1765C0.500458 13.3125 0.623505 13.4371 0.787567 13.5505C0.95163 13.6638 1.11569 13.7205 1.27975 13.7205H8.17038V15.8963H3.2485ZM12.1079 33.3035H10.1391V24.5999H12.1079V33.3035ZM18.1987 20.8601L19.1216 22.424H3.80222L2.4487 20.2481L3.80222 18.0722H19.1216L18.1987 19.6362C18.0757 19.8175 18.0141 20.0215 18.0141 20.2481C18.0141 20.4748 18.0757 20.6788 18.1987 20.8601ZM10.1391 2.84102H12.1079V5.0169H10.1391V2.84102ZM4.04831 8.75671L3.12546 7.19279H18.4448L19.7983 9.36868L18.4448 11.5446H3.12546L4.04831 9.98065C4.17136 9.79933 4.23288 9.59534 4.23288 9.36868C4.23288 9.14203 4.17136 8.93804 4.04831 8.75671ZM10.1391 13.7205H12.1079V15.8963H10.1391V13.7205ZM4.23288 19.1602H6.20163V21.3361H4.23288V19.1602ZM8.17038 19.1602H10.1391V21.3361H8.17038V19.1602ZM16.0454 8.28074H18.0141V10.4566H16.0454V8.28074ZM12.1079 8.28074H14.0766V10.4566H12.1079V8.28074Z" fill="white"/>
</svg>
