<svg width="14" height="14" viewBox="0 0 14 14" fill="none" xmlns="http://www.w3.org/2000/svg">
<path d="M11.8527 0.8125C12.6144 0.8125 13.2589 1.45703 13.2589 2.21875V12.5312C13.2589 13.3223 12.6144 13.9375 11.8527 13.9375H7.80969V9.48438H9.50891L9.83118 7.375H7.80969V6.02734C7.80969 5.44141 8.10266 4.88477 9.01086 4.88477H9.91907V3.09766C9.91907 3.09766 9.09875 2.95117 8.27844 2.95117C6.63782 2.95117 5.55383 3.97656 5.55383 5.79297V7.375H3.70813V9.48438H5.55383V13.9375H1.54016C0.749145 13.9375 0.13391 13.3223 0.13391 12.5312V2.21875C0.13391 1.45703 0.749145 0.8125 1.54016 0.8125H11.8527Z" fill="#0169C8"/>
</svg>
