<svg width="15" height="14" viewBox="0 0 15 14" fill="none" xmlns="http://www.w3.org/2000/svg">
<path d="M12.7037 0.8125C13.4655 0.8125 14.11 1.45703 14.11 2.21875V12.5312C14.11 13.3223 13.4655 13.9375 12.7037 13.9375H8.66077V9.48438H10.36L10.6823 7.375H8.66077V6.02734C8.66077 5.44141 8.95373 4.88477 9.86194 4.88477H10.7701V3.09766C10.7701 3.09766 9.94983 2.95117 9.12952 2.95117C7.48889 2.95117 6.40491 3.97656 6.40491 5.79297V7.375H4.5592V9.48438H6.40491V13.9375H2.39123C1.60022 13.9375 0.984984 13.3223 0.984984 12.5312V2.21875C0.984984 1.45703 1.60022 0.8125 2.39123 0.8125H12.7037Z" fill="white"/>
</svg>
