<svg width="116" height="15" viewBox="0 0 116 15" fill="none" xmlns="http://www.w3.org/2000/svg">
<path d="M18.6223 4.32812C18.6223 4.47461 18.6223 4.5918 18.6223 4.73828C18.6223 8.81055 15.5461 13.4688 9.8918 13.4688C8.13398 13.4688 6.52266 12.9707 5.175 12.0918C5.40938 12.1211 5.64375 12.1504 5.90742 12.1504C7.34297 12.1504 8.66133 11.6523 9.71602 10.832C8.36836 10.8027 7.22578 9.92383 6.84492 8.69336C7.05 8.72266 7.22578 8.75195 7.43086 8.75195C7.69453 8.75195 7.9875 8.69336 8.22188 8.63477C6.81563 8.3418 5.76094 7.11133 5.76094 5.61719V5.58789C6.17109 5.82227 6.66914 5.93945 7.16719 5.96875C6.31758 5.41211 5.79023 4.47461 5.79023 3.41992C5.79023 2.83398 5.93672 2.30664 6.20039 1.86719C7.72383 3.71289 10.009 4.94336 12.5578 5.08984C12.4992 4.85547 12.4699 4.62109 12.4699 4.38672C12.4699 2.6875 13.8469 1.31055 15.5461 1.31055C16.425 1.31055 17.216 1.66211 17.802 2.27734C18.4758 2.13086 19.1496 1.86719 19.7355 1.51562C19.5012 2.24805 19.0324 2.83398 18.3879 3.21484C19.0031 3.15625 19.6184 2.98047 20.1457 2.74609C19.7355 3.36133 19.2082 3.88867 18.6223 4.32812Z" fill="white"/>
<path d="M44.6587 4.00586C46.5044 4.00586 48.0278 5.5293 48.0278 7.375C48.0278 9.25 46.5044 10.7441 44.6587 10.7441C42.7837 10.7441 41.2895 9.25 41.2895 7.375C41.2895 5.5293 42.7837 4.00586 44.6587 4.00586ZM44.6587 9.57227C45.8598 9.57227 46.8266 8.60547 46.8266 7.375C46.8266 6.17383 45.8598 5.20703 44.6587 5.20703C43.4282 5.20703 42.4614 6.17383 42.4614 7.375C42.4614 8.60547 43.4575 9.57227 44.6587 9.57227ZM48.936 3.88867C48.936 4.32812 48.5844 4.67969 48.145 4.67969C47.7055 4.67969 47.354 4.32812 47.354 3.88867C47.354 3.44922 47.7055 3.09766 48.145 3.09766C48.5844 3.09766 48.936 3.44922 48.936 3.88867ZM51.1626 4.67969C51.2212 5.76367 51.2212 9.01562 51.1626 10.0996C51.104 11.1543 50.8696 12.0625 50.1079 12.8535C49.3462 13.6152 48.4087 13.8496 47.354 13.9082C46.27 13.9668 43.018 13.9668 41.934 13.9082C40.8794 13.8496 39.9712 13.6152 39.1801 12.8535C38.4184 12.0625 38.184 11.1543 38.1255 10.0996C38.0669 9.01562 38.0669 5.76367 38.1255 4.67969C38.184 3.625 38.4184 2.6875 39.1801 1.92578C39.9712 1.16406 40.8794 0.929688 41.934 0.871094C43.018 0.8125 46.27 0.8125 47.354 0.871094C48.4087 0.929688 49.3462 1.16406 50.1079 1.92578C50.8696 2.6875 51.104 3.625 51.1626 4.67969ZM49.7563 11.2422C50.1079 10.3926 50.02 8.3418 50.02 7.375C50.02 6.4375 50.1079 4.38672 49.7563 3.50781C49.5219 2.95117 49.0825 2.48242 48.5258 2.27734C47.6469 1.92578 45.5962 2.01367 44.6587 2.01367C43.6919 2.01367 41.6411 1.92578 40.7915 2.27734C40.2055 2.51172 39.7661 2.95117 39.5317 3.50781C39.1801 4.38672 39.268 6.4375 39.268 7.375C39.268 8.3418 39.1801 10.3926 39.5317 11.2422C39.7661 11.8281 40.2055 12.2676 40.7915 12.502C41.6411 12.8535 43.6919 12.7656 44.6587 12.7656C45.5962 12.7656 47.6469 12.8535 48.5258 12.502C49.0825 12.2676 49.5512 11.8281 49.7563 11.2422Z" fill="white"/>
<path d="M80.8527 0.8125C81.6144 0.8125 82.2589 1.45703 82.2589 2.21875V12.5312C82.2589 13.3223 81.6144 13.9375 80.8527 13.9375H76.8097V9.48438H78.5089L78.8312 7.375H76.8097V6.02734C76.8097 5.44141 77.1027 4.88477 78.0109 4.88477H78.9191V3.09766C78.9191 3.09766 78.0988 2.95117 77.2784 2.95117C75.6378 2.95117 74.5538 3.97656 74.5538 5.79297V7.375H72.7081V9.48438H74.5538V13.9375H70.5402C69.7491 13.9375 69.1339 13.3223 69.1339 12.5312V2.21875C69.1339 1.45703 69.7491 0.8125 70.5402 0.8125H80.8527Z" fill="white"/>
<path d="M105.852 0.0800781C108.605 0.0800781 111.125 1.98438 111.125 4.88477C111.125 7.60938 109.719 10.6562 106.613 10.6562C105.852 10.6562 104.943 10.2754 104.562 9.60156C103.918 12.2383 103.947 12.6484 102.482 14.6699C102.336 14.7285 102.365 14.7285 102.277 14.6113C102.219 14.0547 102.16 13.5273 102.16 12.9707C102.16 11.1836 102.98 8.57617 103.391 6.84766C103.156 6.37891 103.098 5.85156 103.098 5.35352C103.098 3.00977 105.852 2.6582 105.852 4.5918C105.852 5.73438 105.061 6.81836 105.061 7.93164C105.061 8.66406 105.705 9.19141 106.438 9.19141C108.459 9.19141 109.074 6.29102 109.074 4.73828C109.074 2.6582 107.609 1.51562 105.588 1.51562C103.273 1.51562 101.486 3.18555 101.486 5.5293C101.486 6.67188 102.189 7.25781 102.189 7.52148C102.189 7.75586 102.014 8.54688 101.721 8.54688C101.018 8.54688 99.875 7.375 99.875 5.32422C99.875 2.07227 102.834 0.0800781 105.852 0.0800781Z" fill="white"/>
</svg>
