<svg width="14" height="14" viewBox="0 0 14 14" fill="none" xmlns="http://www.w3.org/2000/svg">
<path d="M7.08425 4.00586C8.92996 4.00586 10.4534 5.5293 10.4534 7.375C10.4534 9.25 8.92996 10.7441 7.08425 10.7441C5.20925 10.7441 3.71511 9.25 3.71511 7.375C3.71511 5.5293 5.20925 4.00586 7.08425 4.00586ZM7.08425 9.57227C8.28543 9.57227 9.25222 8.60547 9.25222 7.375C9.25222 6.17383 8.28543 5.20703 7.08425 5.20703C5.85379 5.20703 4.88699 6.17383 4.88699 7.375C4.88699 8.60547 5.88308 9.57227 7.08425 9.57227ZM11.3616 3.88867C11.3616 4.32812 11.01 4.67969 10.5706 4.67969C10.1311 4.67969 9.77957 4.32812 9.77957 3.88867C9.77957 3.44922 10.1311 3.09766 10.5706 3.09766C11.01 3.09766 11.3616 3.44922 11.3616 3.88867ZM13.5882 4.67969C13.6468 5.76367 13.6468 9.01562 13.5882 10.0996C13.5296 11.1543 13.2952 12.0625 12.5335 12.8535C11.7718 13.6152 10.8343 13.8496 9.77957 13.9082C8.69558 13.9668 5.44363 13.9668 4.35964 13.9082C3.30496 13.8496 2.39675 13.6152 1.60574 12.8535C0.84402 12.0625 0.609645 11.1543 0.551051 10.0996C0.492457 9.01562 0.492457 5.76367 0.551051 4.67969C0.609645 3.625 0.84402 2.6875 1.60574 1.92578C2.39675 1.16406 3.30496 0.929688 4.35964 0.871094C5.44363 0.8125 8.69558 0.8125 9.77957 0.871094C10.8343 0.929688 11.7718 1.16406 12.5335 1.92578C13.2952 2.6875 13.5296 3.625 13.5882 4.67969ZM12.1819 11.2422C12.5335 10.3926 12.4456 8.3418 12.4456 7.375C12.4456 6.4375 12.5335 4.38672 12.1819 3.50781C11.9475 2.95117 11.5081 2.48242 10.9514 2.27734C10.0725 1.92578 8.02175 2.01367 7.08425 2.01367C6.11746 2.01367 4.06668 1.92578 3.21707 2.27734C2.63113 2.51172 2.19168 2.95117 1.9573 3.50781C1.60574 4.38672 1.69363 6.4375 1.69363 7.375C1.69363 8.3418 1.60574 10.3926 1.9573 11.2422C2.19168 11.8281 2.63113 12.2676 3.21707 12.502C4.06668 12.8535 6.11746 12.7656 7.08425 12.7656C8.02175 12.7656 10.0725 12.8535 10.9514 12.502C11.5081 12.2676 11.9768 11.8281 12.1819 11.2422Z" fill="white"/>
</svg>
