<svg width="15" height="14" viewBox="0 0 15 14" fill="none" xmlns="http://www.w3.org/2000/svg">
<path d="M7.47619 3.20654C9.3219 3.20654 10.8453 4.72998 10.8453 6.57568C10.8453 8.45068 9.3219 9.94482 7.47619 9.94482C5.60119 9.94482 4.10705 8.45068 4.10705 6.57568C4.10705 4.72998 5.60119 3.20654 7.47619 3.20654ZM7.47619 8.77295C8.67737 8.77295 9.64416 7.80615 9.64416 6.57568C9.64416 5.37451 8.67737 4.40771 7.47619 4.40771C6.24573 4.40771 5.27893 5.37451 5.27893 6.57568C5.27893 7.80615 6.27502 8.77295 7.47619 8.77295ZM11.7535 3.08936C11.7535 3.52881 11.402 3.88037 10.9625 3.88037C10.5231 3.88037 10.1715 3.52881 10.1715 3.08936C10.1715 2.6499 10.5231 2.29834 10.9625 2.29834C11.402 2.29834 11.7535 2.6499 11.7535 3.08936ZM13.9801 3.88037C14.0387 4.96436 14.0387 8.21631 13.9801 9.30029C13.9215 10.355 13.6871 11.2632 12.9254 12.0542C12.1637 12.8159 11.2262 13.0503 10.1715 13.1089C9.08752 13.1675 5.83557 13.1675 4.75159 13.1089C3.6969 13.0503 2.78869 12.8159 1.99768 12.0542C1.23596 11.2632 1.00159 10.355 0.942991 9.30029C0.884398 8.21631 0.884398 4.96436 0.942991 3.88037C1.00159 2.82568 1.23596 1.88818 1.99768 1.12646C2.78869 0.364746 3.6969 0.130371 4.75159 0.0717773C5.83557 0.0131836 9.08752 0.0131836 10.1715 0.0717773C11.2262 0.130371 12.1637 0.364746 12.9254 1.12646C13.6871 1.88818 13.9215 2.82568 13.9801 3.88037ZM12.5739 10.4429C12.9254 9.59326 12.8375 7.54248 12.8375 6.57568C12.8375 5.63818 12.9254 3.5874 12.5739 2.7085C12.3395 2.15186 11.9 1.68311 11.3434 1.47803C10.4645 1.12646 8.41369 1.21436 7.47619 1.21436C6.5094 1.21436 4.45862 1.12646 3.60901 1.47803C3.02307 1.7124 2.58362 2.15186 2.34924 2.7085C1.99768 3.5874 2.08557 5.63818 2.08557 6.57568C2.08557 7.54248 1.99768 9.59326 2.34924 10.4429C2.58362 11.0288 3.02307 11.4683 3.60901 11.7026C4.45862 12.0542 6.5094 11.9663 7.47619 11.9663C8.41369 11.9663 10.4645 12.0542 11.3434 11.7026C11.9 11.4683 12.3688 11.0288 12.5739 10.4429Z" fill="#0169C8"/>
</svg>
