<svg width="15" height="19" viewBox="0 0 15 19" fill="none" xmlns="http://www.w3.org/2000/svg">
<g clip-path="url(#clip0_215_276)">
<path d="M7.85156 2.64173C7.86133 2.64173 7.86621 2.64173 7.86621 2.64173C7.86621 2.64173 7.87109 2.64173 7.88086 2.64173C8.59375 2.64173 9.2749 2.80454 9.92432 3.13018C10.5737 3.45582 11.1475 3.92059 11.6455 4.5245C12.1533 5.14024 12.5415 5.8448 12.8101 6.63817C13.0786 7.43154 13.2129 8.26635 13.2129 9.14261C13.2129 9.33207 13.269 9.49785 13.3813 9.63994C13.4937 9.78204 13.6328 9.85309 13.7988 9.85309C13.9551 9.85309 14.0918 9.785 14.209 9.64882C14.3262 9.51265 14.3848 9.34391 14.3848 9.14261C14.3848 8.60975 14.3457 8.08873 14.2676 7.57955C14.1797 7.07038 14.0552 6.57896 13.894 6.10531C13.7329 5.63166 13.5352 5.17577 13.3008 4.73764C13.0664 4.29951 12.793 3.89691 12.4805 3.52982C12.1777 3.1509 11.8457 2.81935 11.4844 2.53515C11.1328 2.25096 10.7617 2.01118 10.3711 1.81579C9.98047 1.62041 9.5752 1.47536 9.15527 1.38063C8.74512 1.27405 8.32031 1.22077 7.88086 1.22077C7.87109 1.22077 7.86377 1.22077 7.85889 1.22077C7.854 1.22077 7.85156 1.22077 7.85156 1.22077C7.68555 1.22077 7.54639 1.29182 7.43408 1.43391C7.32178 1.57601 7.26562 1.74179 7.26562 1.93125C7.26562 2.13255 7.32178 2.30129 7.43408 2.43746C7.54639 2.57364 7.68555 2.64173 7.85156 2.64173ZM15 15.1284C14.9902 14.7732 14.9268 14.4386 14.8096 14.1248C14.6924 13.811 14.5264 13.5298 14.3115 13.2811C13.9111 12.8075 13.5352 12.4286 13.1836 12.1444C12.832 11.8602 12.4902 11.6589 12.1582 11.5405C11.709 11.3865 11.2769 11.3806 10.8618 11.5227C10.4468 11.6648 10.0537 11.9549 9.68262 12.393L8.8916 13.3522C8.6377 13.1864 8.28857 12.9141 7.84424 12.5351C7.3999 12.1562 6.91406 11.647 6.38672 11.0076L6.31348 10.9188C5.7959 10.2912 5.37842 9.70507 5.06104 9.16037C4.74365 8.61567 4.5166 8.18938 4.37988 7.88151L5.1709 6.92236C5.53223 6.47239 5.77148 5.99578 5.88867 5.49252C6.00586 4.98927 6.00098 4.46529 5.87402 3.92059C5.77637 3.51798 5.61035 3.10354 5.37598 2.67725C5.1416 2.25096 4.8291 1.79507 4.43848 1.30958C4.2334 1.04907 4.00146 0.847767 3.74268 0.705671C3.48389 0.563576 3.20801 0.486607 2.91504 0.474766C2.62207 0.462924 2.34131 0.51621 2.07275 0.634624C1.8042 0.753037 1.5625 0.930656 1.34766 1.16748L1.33301 1.18524C1.32324 1.18524 1.31592 1.1882 1.31104 1.19413C1.30615 1.20005 1.30371 1.20301 1.30371 1.20301C0.874023 1.72402 0.549316 2.34569 0.32959 3.06801C0.109863 3.79033 0 4.57778 0 5.43036C0 6.16452 0.0830078 6.91644 0.249023 7.68613C0.415039 8.45581 0.649414 9.2255 0.952148 9.99518C1.25488 10.7649 1.62598 11.5168 2.06543 12.251C2.49512 12.997 2.98828 13.7015 3.54492 14.3646C3.54492 14.3646 3.54492 14.3676 3.54492 14.3735C3.54492 14.3794 3.54492 14.3824 3.54492 14.3824C3.75 14.6311 3.96973 14.8797 4.2041 15.1284C4.43848 15.3771 4.6875 15.6198 4.95117 15.8566C5.07813 15.975 5.22217 16.0195 5.3833 15.9898C5.54443 15.9602 5.67383 15.8685 5.77148 15.7145C5.86914 15.5606 5.90576 15.3859 5.88135 15.1906C5.85693 14.9952 5.78125 14.8383 5.6543 14.7199C5.41992 14.5067 5.19531 14.2847 4.98047 14.0538C4.76562 13.8229 4.56055 13.5949 4.36523 13.37C4.36523 13.37 4.36523 13.367 4.36523 13.3611C4.36523 13.3552 4.36523 13.3522 4.36523 13.3522C3.86719 12.7483 3.42285 12.1148 3.03223 11.4517C2.63184 10.7886 2.29492 10.1166 2.02148 9.43568C1.74805 8.7548 1.53809 8.07689 1.3916 7.40193C1.24512 6.72698 1.17188 6.06979 1.17188 5.43036C1.17188 4.76724 1.25244 4.16334 1.41357 3.61863C1.57471 3.07393 1.81152 2.61212 2.12402 2.2332V2.21544C2.33887 1.99045 2.58789 1.88388 2.87109 1.89572C3.1543 1.90756 3.39355 2.03782 3.58887 2.28649C4.35059 3.24563 4.74854 3.98868 4.78271 4.51561C4.81689 5.04255 4.66797 5.51325 4.33594 5.92769L3.25195 7.25984C3.16406 7.36641 3.10791 7.49074 3.0835 7.63284C3.05908 7.77494 3.07129 7.91111 3.12012 8.04137C3.13965 8.07689 3.33008 8.47949 3.69141 9.24918C4.05273 10.0189 4.64844 10.9129 5.47852 11.9312L5.55176 12.02C6.3916 13.0266 7.12891 13.7489 7.76367 14.187C8.39844 14.6251 8.73047 14.856 8.75977 14.8797C8.86719 14.9389 8.97949 14.9537 9.09668 14.9241C9.21387 14.8945 9.31641 14.8264 9.4043 14.7199L10.5029 13.4055C10.8447 13.0029 11.2329 12.8223 11.6675 12.8637C12.1021 12.9052 12.7148 13.3877 13.5059 14.3113C13.7109 14.5482 13.8184 14.8383 13.8281 15.1817C13.8379 15.5251 13.75 15.827 13.5645 16.0875H13.5498C13.2373 16.4665 12.8589 16.7536 12.4146 16.949C11.9702 17.1444 11.4795 17.2421 10.9424 17.2421C10.9424 17.2421 10.9399 17.2421 10.9351 17.2421C10.9302 17.2421 10.9229 17.2421 10.9131 17.2421C10.4834 17.2421 10.022 17.171 9.52881 17.0289C9.03564 16.8868 8.53516 16.6796 8.02734 16.4073C7.88086 16.3362 7.73193 16.3362 7.58057 16.4073C7.4292 16.4783 7.31934 16.6026 7.25098 16.7803C7.19238 16.9579 7.19238 17.1385 7.25098 17.322C7.30957 17.5055 7.41211 17.6388 7.55859 17.7216C8.1543 18.0295 8.73291 18.2634 9.29443 18.4232C9.85596 18.5831 10.3955 18.663 10.9131 18.663C10.9131 18.663 10.918 18.663 10.9277 18.663C10.9375 18.663 10.9424 18.663 10.9424 18.663C11.6455 18.663 12.29 18.5298 12.876 18.2634C13.4619 17.997 13.9697 17.6032 14.3994 17.0822C14.3994 17.0822 14.4019 17.0792 14.4067 17.0733C14.4116 17.0674 14.4141 17.0585 14.4141 17.0467L14.4287 17.0289C14.624 16.7684 14.7705 16.4753 14.8682 16.1497C14.9658 15.8241 15.0098 15.4836 15 15.1284ZM10.8252 5.53693C10.5127 5.15801 10.2173 4.8975 9.93896 4.7554C9.66064 4.61331 9.44824 4.51857 9.30176 4.47121C9.14551 4.42384 8.99658 4.44753 8.85498 4.54226C8.71338 4.63699 8.62305 4.77908 8.58398 4.96854C8.53516 5.15801 8.55225 5.33859 8.63525 5.51028C8.71826 5.68198 8.83789 5.79152 8.99414 5.83888C9.11133 5.88625 9.25537 5.95433 9.42627 6.04314C9.59717 6.13195 9.78516 6.30069 9.99023 6.54936C10.1953 6.78619 10.3345 7.00821 10.4077 7.21543C10.481 7.42266 10.5322 7.59732 10.5615 7.73941L10.5762 7.77494C10.6152 7.92887 10.686 8.05321 10.7886 8.14794C10.8911 8.24267 11.0059 8.29003 11.1328 8.29003C11.1621 8.29003 11.1914 8.28707 11.2207 8.28115C11.25 8.27523 11.2744 8.26635 11.2939 8.25451C11.4502 8.1953 11.5674 8.07985 11.6455 7.90815C11.7236 7.73645 11.7383 7.55587 11.6895 7.36641V7.33089C11.6406 7.15327 11.5601 6.90164 11.4478 6.576C11.3354 6.25037 11.1279 5.90401 10.8252 5.53693Z" fill="#F60515"/>
</g>
<defs>
<clipPath id="clip0_215_276">
<rect width="15" height="18.1883" fill="white" transform="matrix(1 0 0 -1 0 18.663)"/>
</clipPath>
</defs>
</svg>
