<svg width="15" height="15" viewBox="0 0 15 15" fill="none" xmlns="http://www.w3.org/2000/svg">
<path d="M7.85156 1.78711C7.86133 1.78711 7.86621 1.78711 7.86621 1.78711C7.86621 1.78711 7.87109 1.78711 7.88086 1.78711C8.59375 1.78711 9.2749 1.92139 9.92432 2.18994C10.5737 2.4585 11.1475 2.8418 11.6455 3.33984C12.1533 3.84766 12.5415 4.42871 12.8101 5.08301C13.0786 5.7373 13.2129 6.42578 13.2129 7.14844C13.2129 7.30469 13.269 7.44141 13.3813 7.55859C13.4937 7.67578 13.6328 7.73438 13.7988 7.73438C13.9551 7.73438 14.0918 7.67822 14.209 7.56592C14.3262 7.45361 14.3848 7.31445 14.3848 7.14844C14.3848 6.70898 14.3457 6.2793 14.2676 5.85938C14.1797 5.43945 14.0552 5.03418 13.894 4.64355C13.7329 4.25293 13.5352 3.87695 13.3008 3.51562C13.0664 3.1543 12.793 2.82227 12.4805 2.51953C12.1777 2.20703 11.8457 1.93359 11.4844 1.69922C11.1328 1.46484 10.7617 1.26709 10.3711 1.10596C9.98047 0.944824 9.5752 0.825195 9.15527 0.74707C8.74512 0.65918 8.32031 0.615234 7.88086 0.615234C7.87109 0.615234 7.86377 0.615234 7.85889 0.615234C7.854 0.615234 7.85156 0.615234 7.85156 0.615234C7.68555 0.615234 7.54639 0.673828 7.43408 0.791016C7.32178 0.908203 7.26562 1.04492 7.26562 1.20117C7.26562 1.36719 7.32178 1.50635 7.43408 1.61865C7.54639 1.73096 7.68555 1.78711 7.85156 1.78711ZM15 12.085C14.9902 11.792 14.9268 11.5161 14.8096 11.2573C14.6924 10.9985 14.5264 10.7666 14.3115 10.5615C13.9111 10.1709 13.5352 9.8584 13.1836 9.62402C12.832 9.38965 12.4902 9.22363 12.1582 9.12598C11.709 8.99902 11.2769 8.99414 10.8618 9.11133C10.4468 9.22852 10.0537 9.46777 9.68262 9.8291L8.8916 10.6201C8.6377 10.4834 8.28857 10.2588 7.84424 9.94629C7.3999 9.63379 6.91406 9.21387 6.38672 8.68652L6.31348 8.61328C5.7959 8.0957 5.37842 7.6123 5.06104 7.16309C4.74365 6.71387 4.5166 6.3623 4.37988 6.1084L5.1709 5.31738C5.53223 4.94629 5.77148 4.55322 5.88867 4.13818C6.00586 3.72314 6.00098 3.29102 5.87402 2.8418C5.77637 2.50977 5.61035 2.16797 5.37598 1.81641C5.1416 1.46484 4.8291 1.08887 4.43848 0.688477C4.2334 0.473633 4.00146 0.307617 3.74268 0.19043C3.48389 0.0732422 3.20801 0.00976562 2.91504 0C2.62207 -0.00976562 2.34131 0.0341797 2.07275 0.131836C1.8042 0.229492 1.5625 0.375977 1.34766 0.571289L1.33301 0.585938C1.32324 0.585938 1.31592 0.588379 1.31104 0.593262C1.30615 0.598145 1.30371 0.600586 1.30371 0.600586C0.874023 1.03027 0.549316 1.54297 0.32959 2.13867C0.109863 2.73438 0 3.38379 0 4.08691C0 4.69238 0.0830078 5.3125 0.249023 5.94727C0.415039 6.58203 0.649414 7.2168 0.952148 7.85156C1.25488 8.48633 1.62598 9.10645 2.06543 9.71191C2.49512 10.3271 2.98828 10.9082 3.54492 11.4551C3.54492 11.4551 3.54492 11.4575 3.54492 11.4624C3.54492 11.4673 3.54492 11.4697 3.54492 11.4697C3.75 11.6748 3.96973 11.8799 4.2041 12.085C4.43848 12.29 4.6875 12.4902 4.95117 12.6855C5.07812 12.7832 5.22217 12.8198 5.3833 12.7954C5.54443 12.771 5.67383 12.6953 5.77148 12.5684C5.86914 12.4414 5.90576 12.2974 5.88135 12.1362C5.85693 11.9751 5.78125 11.8457 5.6543 11.748C5.41992 11.5723 5.19531 11.3892 4.98047 11.1987C4.76562 11.0083 4.56055 10.8203 4.36523 10.6348C4.36523 10.6348 4.36523 10.6323 4.36523 10.6274C4.36523 10.6226 4.36523 10.6201 4.36523 10.6201C3.86719 10.1221 3.42285 9.59961 3.03223 9.05273C2.63184 8.50586 2.29492 7.95166 2.02148 7.39014C1.74805 6.82861 1.53809 6.26953 1.3916 5.71289C1.24512 5.15625 1.17188 4.61426 1.17188 4.08691C1.17188 3.54004 1.25244 3.04199 1.41357 2.59277C1.57471 2.14355 1.81152 1.7627 2.12402 1.4502V1.43555C2.33887 1.25 2.58789 1.16211 2.87109 1.17188C3.1543 1.18164 3.39355 1.28906 3.58887 1.49414C4.35059 2.28516 4.74854 2.89795 4.78271 3.33252C4.81689 3.76709 4.66797 4.15527 4.33594 4.49707L3.25195 5.5957C3.16406 5.68359 3.10791 5.78613 3.0835 5.90332C3.05908 6.02051 3.07129 6.13281 3.12012 6.24023C3.13965 6.26953 3.33008 6.60156 3.69141 7.23633C4.05273 7.87109 4.64844 8.6084 5.47852 9.44824L5.55176 9.52148C6.3916 10.3516 7.12891 10.9473 7.76367 11.3086C8.39844 11.6699 8.73047 11.8604 8.75977 11.8799C8.86719 11.9287 8.97949 11.9409 9.09668 11.9165C9.21387 11.8921 9.31641 11.8359 9.4043 11.748L10.5029 10.6641C10.8447 10.332 11.2329 10.1831 11.6675 10.2173C12.1021 10.2515 12.7148 10.6494 13.5059 11.4111C13.7109 11.6064 13.8184 11.8457 13.8281 12.1289C13.8379 12.4121 13.75 12.6611 13.5645 12.876H13.5498C13.2373 13.1885 12.8589 13.4253 12.4146 13.5864C11.9702 13.7476 11.4795 13.8281 10.9424 13.8281C10.9424 13.8281 10.9399 13.8281 10.9351 13.8281C10.9302 13.8281 10.9229 13.8281 10.9131 13.8281C10.4834 13.8281 10.022 13.7695 9.52881 13.6523C9.03564 13.5352 8.53516 13.3643 8.02734 13.1396C7.88086 13.0811 7.73193 13.0811 7.58057 13.1396C7.4292 13.1982 7.31934 13.3008 7.25098 13.4473C7.19238 13.5938 7.19238 13.7427 7.25098 13.894C7.30957 14.0454 7.41211 14.1553 7.55859 14.2236C8.1543 14.4775 8.73291 14.6704 9.29443 14.8022C9.85596 14.9341 10.3955 15 10.9131 15C10.9131 15 10.918 15 10.9277 15C10.9375 15 10.9424 15 10.9424 15C11.6455 15 12.29 14.8901 12.876 14.6704C13.4619 14.4507 13.9697 14.126 14.3994 13.6963C14.3994 13.6963 14.4019 13.6938 14.4067 13.689C14.4116 13.6841 14.4141 13.6768 14.4141 13.667L14.4287 13.6523C14.624 13.4375 14.7705 13.1958 14.8682 12.9272C14.9658 12.6587 15.0098 12.3779 15 12.085ZM10.8252 4.1748C10.5127 3.8623 10.2173 3.64746 9.93896 3.53027C9.66064 3.41309 9.44824 3.33496 9.30176 3.2959C9.14551 3.25684 8.99658 3.27637 8.85498 3.35449C8.71338 3.43262 8.62305 3.5498 8.58398 3.70605C8.53516 3.8623 8.55225 4.01123 8.63525 4.15283C8.71826 4.29443 8.83789 4.38477 8.99414 4.42383C9.11133 4.46289 9.25537 4.51904 9.42627 4.59229C9.59717 4.66553 9.78516 4.80469 9.99023 5.00977C10.1953 5.20508 10.3345 5.38818 10.4077 5.55908C10.481 5.72998 10.5322 5.87402 10.5615 5.99121L10.5762 6.02051C10.6152 6.14746 10.686 6.25 10.7886 6.32812C10.8911 6.40625 11.0059 6.44531 11.1328 6.44531C11.1621 6.44531 11.1914 6.44287 11.2207 6.43799C11.25 6.43311 11.2744 6.42578 11.2939 6.41602C11.4502 6.36719 11.5674 6.27197 11.6455 6.13037C11.7236 5.98877 11.7383 5.83984 11.6895 5.68359V5.6543C11.6406 5.50781 11.5601 5.30029 11.4478 5.03174C11.3354 4.76318 11.1279 4.47754 10.8252 4.1748Z" fill="#F60515"/>
</svg>
