<svg width="63" height="69" viewBox="0 0 63 69" fill="none" xmlns="http://www.w3.org/2000/svg">
<path d="M62.2418 17.8515C61.8316 16.5822 61.0626 15.619 59.9347 14.9617C58.8067 14.3044 57.6275 14.1344 56.3971 14.4517L53.0133 12.2078C52.398 11.7545 51.711 11.4938 50.9522 11.4258C50.1935 11.3578 49.4654 11.4598 48.7682 11.7318L36.4019 16.6956L26.1891 0.784386C26.066 0.603058 25.9019 0.478401 25.6969 0.4104C25.4918 0.342407 25.2867 0.353737 25.0816 0.444405L19.5445 2.62029C19.2574 2.75628 19.0626 2.96027 18.9601 3.23226C18.8575 3.50424 18.8473 3.77623 18.9293 4.04822L24.651 21.4553L12.3463 26.4191L5.70175 18.1915C5.5787 18.0555 5.41464 17.9535 5.20956 17.8855C5.00449 17.8175 4.81992 17.8288 4.65585 17.9195L0.964447 19.4154C0.677338 19.5061 0.482513 19.6874 0.379974 19.9594C0.277435 20.2314 0.267181 20.5034 0.349213 20.7754L5.76328 37.1625C5.80429 37.3438 5.91708 37.5025 6.10165 37.6385C6.28622 37.7745 6.48105 37.8425 6.68613 37.8425L27.5426 37.5705C27.5836 37.5705 27.6349 37.5705 27.6964 37.5705C27.7579 37.5705 27.8092 37.5478 27.8502 37.5025L29.6959 36.7545L35.11 53.1417C35.151 53.3684 35.2638 53.5383 35.4483 53.6517C35.6329 53.765 35.8277 53.8217 36.0328 53.8217C36.0738 53.8217 36.1251 53.8217 36.1866 53.8217C36.2481 53.8217 36.2994 53.799 36.3404 53.7537L41.8775 51.5098C42.1236 51.4645 42.2979 51.3285 42.4005 51.1018C42.503 50.8752 42.5543 50.6485 42.5543 50.4218L41.2008 32.1308L59.2887 24.8552C60.273 24.4472 61.0626 23.7785 61.6573 22.8493C62.252 21.92 62.5494 20.8887 62.5494 19.7554C62.5494 19.4381 62.5289 19.1208 62.4879 18.8035C62.4469 18.4861 62.3648 18.1688 62.2418 17.8515ZM21.1441 4.32021L25.0201 2.75628L34.4947 17.5115L26.4967 20.7074L21.1441 4.32021ZM5.20956 29.2749L2.56406 21.0473L4.71738 20.2314L10.316 27.167L5.20956 29.2749ZM36.5865 51.3738L29.8805 30.9068L38.8629 27.303L40.524 49.8099L36.5865 51.3738ZM58.6119 22.8153L41.0162 29.8869L40.7086 25.7391C40.6676 25.5578 40.6163 25.3878 40.5548 25.2291C40.4933 25.0705 40.3805 24.9458 40.2164 24.8552C40.0934 24.7645 39.9601 24.7192 39.8165 24.7192C39.6729 24.7192 39.5191 24.7418 39.3551 24.7872L28.2809 29.2069C28.1578 29.2976 28.045 29.3883 27.9425 29.4789C27.8399 29.5696 27.7682 29.6829 27.7271 29.8189C27.6861 29.9549 27.6554 30.0909 27.6349 30.2269C27.6143 30.3629 27.6246 30.4989 27.6656 30.6349L29.0191 34.7146L27.358 35.3946L7.36288 35.6666L5.88632 31.3148L49.4449 13.7717C49.8551 13.5904 50.2857 13.5224 50.7369 13.5677C51.1881 13.6131 51.6187 13.7717 52.0289 14.0437L52.9518 14.6557L50.0602 15.8796L50.7369 17.9195L55.1051 16.1516L55.7818 16.5596C55.9049 16.6502 56.0382 16.7069 56.1817 16.7296C56.3253 16.7522 56.4586 16.7409 56.5816 16.6956C57.3609 16.3783 58.1197 16.4123 58.858 16.7976C59.5963 17.1829 60.109 17.7835 60.3961 18.5995C60.4371 18.7808 60.4781 18.9735 60.5191 19.1774C60.5602 19.3814 60.5807 19.5741 60.5807 19.7554C60.5807 20.4354 60.4063 21.0587 60.0577 21.6253C59.7091 22.192 59.2271 22.5886 58.6119 22.8153ZM43.6002 18.4635L45.4459 17.7155L46.1227 19.7554L44.2769 20.5034L43.6002 18.4635ZM39.9088 19.9594L41.7545 19.2114L42.4312 21.2513L40.5855 21.9993L39.9088 19.9594ZM36.2174 21.4553L38.0631 20.7074L38.7398 22.7473L36.8941 23.4952L36.2174 21.4553ZM32.4644 22.8833L34.3102 22.2033L34.9869 24.2432L33.1412 24.9911L32.4644 22.8833ZM28.773 24.3792L30.6187 23.6312L31.2955 25.7391L29.4498 26.4191L28.773 24.3792ZM25.0816 25.8751L26.9273 25.1271L27.6041 27.167L25.7584 27.915L25.0816 25.8751ZM21.3902 27.371L23.2359 26.6231L23.9127 28.663L22.067 29.4109L21.3902 27.371ZM17.6988 28.8669L19.5445 28.119L20.2213 30.1589L18.3756 30.9068L17.6988 28.8669ZM13.9459 30.3629L15.8531 29.6149L16.5299 31.6548L14.6227 32.4028L13.9459 30.3629ZM18.6217 47.77H24.7125C24.9176 48.4046 25.2662 48.9259 25.7584 49.3339C26.2506 49.7419 26.8248 49.9459 27.481 49.9459C28.3014 49.9459 28.9986 49.6285 29.5728 48.9939C30.1471 48.3593 30.4342 47.5887 30.4342 46.682C30.4342 45.7754 30.1471 45.0048 29.5728 44.3702C28.9986 43.7355 28.3014 43.4182 27.481 43.4182C26.8248 43.4182 26.2506 43.6222 25.7584 44.0302C25.2662 44.4381 24.9176 44.9595 24.7125 45.5941H18.6217C16.981 45.5941 15.5865 46.2287 14.4381 47.498C13.2896 48.7673 12.7154 50.3085 12.7154 52.1218C12.7154 53.935 13.2896 55.4762 14.4381 56.7455C15.5865 58.0148 16.981 58.6494 18.6217 58.6494H35.356V56.4735H18.6217C17.5553 56.4735 16.6324 56.0429 15.8531 55.1816C15.0738 54.3203 14.6842 53.3004 14.6842 52.1218C14.6842 50.9431 15.0738 49.9232 15.8531 49.0619C16.6324 48.2006 17.5553 47.77 18.6217 47.77ZM27.481 45.5941C27.7682 45.5941 28.004 45.6961 28.1886 45.9001C28.3731 46.1041 28.4654 46.3647 28.4654 46.682C28.4654 46.9993 28.3731 47.26 28.1886 47.464C28.004 47.668 27.7682 47.77 27.481 47.77C27.1939 47.77 26.9581 47.668 26.7735 47.464C26.589 47.26 26.4967 46.9993 26.4967 46.682C26.4967 46.3647 26.589 46.1041 26.7735 45.9001C26.9581 45.6961 27.1939 45.5941 27.481 45.5941ZM37.3248 56.4735H39.2935V58.6494H37.3248V56.4735ZM49.6295 56.4735H41.2623V58.6494H49.6295C50.3268 58.6494 50.9112 58.9101 51.3829 59.4314C51.8546 59.9527 52.0904 60.5987 52.0904 61.3693C52.0904 62.1399 51.8546 62.7859 51.3829 63.3072C50.9112 63.8285 50.3268 64.0891 49.6295 64.0891H18.6217V66.265H49.6295C50.86 66.265 51.9059 65.7891 52.7672 64.8371C53.6285 63.8852 54.0592 62.7292 54.0592 61.3693C54.0592 60.0093 53.6285 58.8534 52.7672 57.9015C51.9059 56.9495 50.86 56.4735 49.6295 56.4735ZM4.84042 61.9133C4.02011 61.9133 3.32285 62.2306 2.74863 62.8652C2.17441 63.4998 1.8873 64.2705 1.8873 65.1771C1.8873 66.0837 2.17441 66.8543 2.74863 67.489C3.32285 68.1236 4.02011 68.4409 4.84042 68.4409C5.49667 68.4409 6.07089 68.2369 6.56308 67.8289C7.05527 67.421 7.4039 66.8997 7.60898 66.265H16.6529V64.0891H7.60898C7.4039 63.4545 7.05527 62.9332 6.56308 62.5252C6.07089 62.1172 5.49667 61.9133 4.84042 61.9133ZM4.84042 66.265C4.55331 66.265 4.31747 66.163 4.1329 65.959C3.94833 65.7551 3.85605 65.4944 3.85605 65.1771C3.85605 64.8598 3.94833 64.5991 4.1329 64.3951C4.31747 64.1911 4.55331 64.0891 4.84042 64.0891C5.12753 64.0891 5.36337 64.1911 5.54794 64.3951C5.73251 64.5991 5.8248 64.8598 5.8248 65.1771C5.8248 65.4944 5.73251 65.7551 5.54794 65.959C5.36337 66.163 5.12753 66.265 4.84042 66.265Z" fill="white"/>
</svg>
