<svg width="12" height="15" viewBox="0 0 12 15" fill="none" xmlns="http://www.w3.org/2000/svg">
<path d="M6.12817 0.0800781C8.88208 0.0800781 11.4016 1.98438 11.4016 4.88477C11.4016 7.60938 9.99536 10.6562 6.88989 10.6562C6.12817 10.6562 5.21997 10.2754 4.83911 9.60156C4.19458 12.2383 4.22388 12.6484 2.75903 14.6699C2.61255 14.7285 2.64185 14.7285 2.55396 14.6113C2.49536 14.0547 2.43677 13.5273 2.43677 12.9707C2.43677 11.1836 3.25708 8.57617 3.66724 6.84766C3.43286 6.37891 3.37427 5.85156 3.37427 5.35352C3.37427 3.00977 6.12817 2.6582 6.12817 4.5918C6.12817 5.73438 5.33716 6.81836 5.33716 7.93164C5.33716 8.66406 5.98169 9.19141 6.71411 9.19141C8.7356 9.19141 9.35083 6.29102 9.35083 4.73828C9.35083 2.6582 7.88599 1.51562 5.8645 1.51562C3.55005 1.51562 1.76294 3.18555 1.76294 5.5293C1.76294 6.67188 2.46606 7.25781 2.46606 7.52148C2.46606 7.75586 2.29028 8.54688 1.99731 8.54688C1.29419 8.54688 0.151611 7.375 0.151611 5.32422C0.151611 2.07227 3.1106 0.0800781 6.12817 0.0800781Z" fill="white"/>
</svg>
