<svg width="10" height="19" viewBox="0 0 10 19" fill="none" xmlns="http://www.w3.org/2000/svg">
<path d="M4.80319 0.911621L1.14694 4.58545C1.00632 4.72607 0.936005 4.89307 0.936005 5.08643C0.936005 5.27979 1.00632 5.44092 1.14694 5.56982C1.28757 5.71045 1.45456 5.78076 1.64792 5.78076C1.84128 5.78076 2.00241 5.71045 2.13132 5.56982L4.59225 3.10889V17.9976C4.59225 18.1968 4.65964 18.3638 4.7944 18.4985C4.92917 18.6333 5.09616 18.7007 5.29538 18.7007C5.4946 18.7007 5.66159 18.6333 5.79636 18.4985C5.93112 18.3638 5.9985 18.1968 5.9985 17.9976V3.10889L8.45944 5.56982C8.58835 5.71045 8.74948 5.78076 8.94284 5.78076C9.1362 5.78076 9.30319 5.71045 9.44382 5.56982C9.58444 5.44092 9.65475 5.27979 9.65475 5.08643C9.65475 4.89307 9.58444 4.72607 9.44382 4.58545L5.78757 0.911621C5.65866 0.770996 5.4946 0.700684 5.29538 0.700684C5.09616 0.700684 4.9321 0.770996 4.80319 0.911621Z" fill="white"/>
</svg>
