<svg width="16" height="12" viewBox="0 0 16 12" fill="none" xmlns="http://www.w3.org/2000/svg">
<path d="M15.0024 4.17139C15.1196 4.0835 15.2954 4.17139 15.2954 4.31787V10.2944C15.2954 11.0854 14.6508 11.7007 13.8891 11.7007H1.70163C0.910614 11.7007 0.29538 11.0854 0.29538 10.2944V4.31787C0.29538 4.17139 0.441864 4.0835 0.559052 4.17139C1.23288 4.69873 2.08249 5.34326 5.07077 7.51123C5.686 7.95068 6.74069 8.91748 7.79538 8.91748C8.82077 8.91748 9.90475 7.95068 10.4907 7.51123C13.479 5.34326 14.3286 4.69873 15.0024 4.17139ZM7.79538 7.95068C7.09225 7.97998 6.12546 7.10107 5.62741 6.74951C1.73093 3.93701 1.43796 3.67334 0.559052 2.97021C0.38327 2.85303 0.29538 2.64795 0.29538 2.41357V1.85693C0.29538 1.09521 0.910614 0.450684 1.70163 0.450684H13.8891C14.6508 0.450684 15.2954 1.09521 15.2954 1.85693V2.41357C15.2954 2.64795 15.1782 2.85303 15.0024 2.97021C14.1235 3.67334 13.8305 3.93701 9.93405 6.74951C9.436 7.10107 8.46921 7.97998 7.79538 7.95068Z" fill="#F60515"/>
</svg>
