<svg width="14" height="14" viewBox="0 0 14 14" fill="none" xmlns="http://www.w3.org/2000/svg">
<path d="M12.0141 0.513184C12.7758 0.513184 13.4204 1.15771 13.4204 1.91943V12.2319C13.4204 13.0229 12.7758 13.6382 12.0141 13.6382H1.70163C0.910614 13.6382 0.29538 13.0229 0.29538 12.2319V1.91943C0.29538 1.15771 0.910614 0.513184 1.70163 0.513184H12.0141ZM11.5161 9.53662C11.5161 9.50732 11.5161 9.47803 11.5454 9.41943C11.5161 9.24365 11.4282 9.09717 11.2524 9.03857L9.20163 8.15967C9.17233 8.13037 9.11374 8.13037 9.05515 8.10107C8.90866 8.13037 8.79147 8.18896 8.70358 8.27686L7.79538 9.39014C6.35983 8.71631 5.21725 7.57373 4.54343 6.13818L5.65671 5.22998C5.7446 5.14209 5.80319 5.0249 5.83249 4.87842C5.80319 4.81982 5.80319 4.76123 5.7739 4.73193L4.89499 2.68115C4.8364 2.50537 4.68991 2.41748 4.51413 2.38818C4.45554 2.41748 4.42624 2.41748 4.39694 2.41748L2.49265 2.85693C2.31686 2.91553 2.17038 3.06201 2.17038 3.26709C2.17038 7.98389 5.97897 11.7632 10.6665 11.7632C10.8716 11.7632 11.0473 11.646 11.0766 11.4409L11.5161 9.53662Z" fill="#F60515"/>
</svg>
