<svg width="12" height="16" viewBox="0 0 12 16" fill="none" xmlns="http://www.w3.org/2000/svg">
<path d="M5.33444 14.7827C1.0571 8.63037 0.29538 7.98584 0.29538 5.70068C0.29538 2.59521 2.78561 0.0756836 5.92038 0.0756836C9.02585 0.0756836 11.5454 2.59521 11.5454 5.70068C11.5454 7.98584 10.7544 8.63037 6.47702 14.7827C6.21335 15.1929 5.59811 15.1929 5.33444 14.7827ZM5.92038 8.04443C7.20944 8.04443 8.26413 7.01904 8.26413 5.70068C8.26413 4.41162 7.20944 3.35693 5.92038 3.35693C4.60202 3.35693 3.57663 4.41162 3.57663 5.70068C3.57663 7.01904 4.60202 8.04443 5.92038 8.04443Z" fill="#F60515"/>
</svg>
