<svg width="16" height="13" viewBox="0 0 16 13" fill="none" xmlns="http://www.w3.org/2000/svg">
<path d="M13.6223 3.32812C13.6223 3.47461 13.6223 3.5918 13.6223 3.73828C13.6223 7.81055 10.5461 12.4688 4.8918 12.4688C3.13398 12.4688 1.52266 11.9707 0.175 11.0918C0.409375 11.1211 0.64375 11.1504 0.907422 11.1504C2.34297 11.1504 3.66133 10.6523 4.71602 9.83203C3.36836 9.80273 2.22578 8.92383 1.84492 7.69336C2.05 7.72266 2.22578 7.75195 2.43086 7.75195C2.69453 7.75195 2.9875 7.69336 3.22188 7.63477C1.81563 7.3418 0.760938 6.11133 0.760938 4.61719V4.58789C1.17109 4.82227 1.66914 4.93945 2.16719 4.96875C1.31758 4.41211 0.790235 3.47461 0.790235 2.41992C0.790235 1.83398 0.936719 1.30664 1.20039 0.867188C2.72383 2.71289 5.00898 3.94336 7.55781 4.08984C7.49922 3.85547 7.46992 3.62109 7.46992 3.38672C7.46992 1.6875 8.84688 0.310547 10.5461 0.310547C11.425 0.310547 12.216 0.662109 12.802 1.27734C13.4758 1.13086 14.1496 0.867188 14.7355 0.515625C14.5012 1.24805 14.0324 1.83398 13.3879 2.21484C14.0031 2.15625 14.6184 1.98047 15.1457 1.74609C14.7355 2.36133 14.2082 2.88867 13.6223 3.32812Z" fill="white"/>
</svg>
